<?xml version="1.0" encoding="UTF-8" standalone="no"?>
<!-- Created with Inkscape (http://www.inkscape.org/) -->

<svg
   width="50"
   height="50"
   viewBox="0 0 495.31287 495.31287"
   version="1.1"
   id="svg1"
   xmlns="http://www.w3.org/2000/svg"
   xmlns:svg="http://www.w3.org/2000/svg">
  <defs
     id="defs1" />
  <g
     id="layer1"
     transform="translate(-2.3435736,-2.3435736)">
    <circle
       style="fill:none;stroke:#ffffff;stroke-width:15.5833;stroke-dasharray:none;stroke-opacity:1"
       id="path1"
       cx="250"
       cy="250"
       r="242.36478" />
    <circle
       style="fill:none;stroke:#ffffff;stroke-width:15.791;stroke-dasharray:none;stroke-opacity:1"
       id="path2"
       r="30.972645"
       cy="93.191437"
       cx="250" />
    <path
       style="fill:none;stroke:#ffffff;stroke-width:15.5833;stroke-dasharray:none;stroke-opacity:1"
       d="m 256.42357,165.42648 h -60.90112 l -80.40347,-24.53722 c 0,0 -7.21485,-4.12364 -14.61357,-1.71 -8.101392,2.64286 -9.045755,13.11122 -4.795604,20.69153 7.445784,13.27984 106.150034,39.29479 106.150034,39.29479 l -0.94149,86.53703 -40.98736,114.90417 c 0,0 -2.52421,5.12136 0.78537,13.40845 2.60844,6.53144 12.5676,13.87633 21.15185,5.47731 7.52471,-7.36235 54.23944,-106.40554 54.23944,-106.40554 0,0 7.04184,-13.32732 8.93814,-18.54213 0.94815,-0.94814 -1.76579,9.26843 -1.76579,9.26843 m -9.35097,-138.38682 h 60.90112 l 80.40347,-24.53722 c 0,0 7.21485,-4.12364 14.61357,-1.71 8.10139,2.64286 9.04575,13.11122 4.7956,20.69153 -7.44578,13.27984 -106.15003,39.29479 -106.15003,39.29479 l 0.94149,86.53703 40.98736,114.90417 c 0,0 2.52421,5.12136 -0.78537,13.40845 -2.60844,6.53144 -12.5676,13.87633 -21.15185,5.47731 -7.52471,-7.36235 -54.23944,-106.40554 -54.23944,-106.40554 0,0 -7.04184,-13.32732 -8.93814,-18.54213 -0.94815,-0.94814 1.76579,9.26843 1.76579,9.26843"
       id="path3" />
  </g>
</svg>
